<svg width="24" height="19" viewBox="0 0 24 19" fill="none" xmlns="http://www.w3.org/2000/svg">
<path d="M17.5835 10.3445C16.7403 11.4139 15.6092 12.2365 14.1491 12.8535C12.7095 13.4704 11.1259 13.7789 9.43958 13.7378C8.65809 13.7378 7.8766 13.6761 7.07454 13.5321C5.964 14.3136 4.73007 14.8894 3.35218 15.2391C3.26892 15.2547 3.18302 15.2716 3.09383 15.2892C2.83053 15.3411 2.53847 15.3986 2.20051 15.4447H2.15938C2.07712 15.4447 1.97429 15.4036 1.89202 15.3419C1.7892 15.2596 1.74807 15.1774 1.7275 15.054C1.70694 15.0334 1.70694 15.0128 1.70694 14.9717V14.8894C1.70694 14.8689 1.70694 14.8277 1.7275 14.8072L1.76864 14.7455C1.76864 14.7455 1.76863 14.7043 1.80976 14.6632L1.99485 14.4781C2.00856 14.4644 2.02913 14.4416 2.05655 14.4111C2.11139 14.3502 2.19365 14.2588 2.30334 14.1491C2.4678 13.9846 2.59127 13.8611 2.65295 13.7583C2.67236 13.7341 2.69291 13.7087 2.71461 13.6819C2.78488 13.595 2.86715 13.4933 2.96143 13.3676C3.08483 13.2031 3.18766 13.0385 3.29048 12.8535C3.31915 12.789 3.35031 12.722 3.38223 12.6533C3.44191 12.525 3.50424 12.3911 3.55783 12.2571C2.4473 11.6195 1.58355 10.838 0.946016 9.89203C0.308484 8.94601 0 7.95886 0 6.88945C0 5.63495 0.411312 4.48329 1.2545 3.43445C2.09769 2.36504 3.22879 1.54241 4.68894 0.925449C6.12852 0.308483 7.71207 0 9.41901 0C11.1259 0 12.6889 0.308483 14.1491 0.925449C15.5887 1.54241 16.7403 2.3856 17.5835 3.43445C18.4267 4.50385 18.838 5.63495 18.838 6.88945C18.838 8.14395 18.4267 9.29562 17.5835 10.3445Z" fill="white"/>
<path d="M24 10.3445C24 11.4139 23.6915 12.4216 23.054 13.347C22.4165 14.293 21.5527 15.0745 20.4422 15.7121C20.5244 15.9383 20.6067 16.1234 20.7095 16.3085C20.7918 16.4935 20.9152 16.6581 21.0386 16.8226C21.1825 16.9871 21.2854 17.1105 21.3471 17.2133C21.3811 17.2474 21.4187 17.2921 21.4628 17.3444C21.5251 17.4184 21.6003 17.5077 21.6967 17.6041C21.8611 17.7686 21.964 17.8715 22.0052 17.9331C22.0257 17.9331 22.0463 17.9537 22.0669 17.9948L22.1286 18.0565C22.1491 18.0565 22.1697 18.0771 22.1902 18.1182C22.1981 18.134 22.206 18.1467 22.2127 18.1575C22.2235 18.1751 22.2314 18.1878 22.2314 18.2005L22.2725 18.2622C22.2725 18.2622 22.2725 18.2828 22.2931 18.3444C22.3136 18.3856 22.3136 18.4267 22.2931 18.4267C22.2725 18.4267 22.2725 18.4473 22.2725 18.509C22.2519 18.6324 22.1902 18.7352 22.108 18.7969C22.0257 18.8792 21.9229 18.8997 21.8201 18.8997C21.3676 18.838 20.9974 18.7763 20.6684 18.6941C19.2905 18.3445 18.0566 17.7686 16.946 16.9871C16.144 17.1311 15.3419 17.1928 14.581 17.1928C12.1543 17.1928 10.036 16.5964 8.24682 15.4241C8.76096 15.4653 9.1517 15.4858 9.41905 15.4858C10.8586 15.4858 12.2365 15.3008 13.5527 14.8894C14.8689 14.4987 16.0617 13.9023 17.09 13.1619C18.2005 12.3393 19.0643 11.3933 19.6607 10.3239C20.2571 9.23392 20.5656 8.10282 20.5656 6.91002C20.5656 6.23136 20.4627 5.55269 20.2571 4.87403C21.4088 5.51156 22.3136 6.31361 22.9923 7.25963C23.671 8.22621 24 9.25448 24 10.3445Z" fill="white"/>
</svg>
