<svg width="24" height="24" viewBox="0 0 24 24" fill="none" xmlns="http://www.w3.org/2000/svg">
    <path d="M20.4431 13.0849C20.4431 12.7956 20.5886 12.3617 20.5886 11.9277C20.5886 11.4938 20.5887 11.0598 20.4431 10.7705L22.9178 8.74531C23.2089 8.456 23.2089 8.31135 23.0633 8.02204L20.7342 3.97175C20.5887 3.8271 20.4431 3.68248 20.0064 3.82713L17.095 4.98434C16.5127 4.55038 15.7849 4.11644 15.057 3.82713L14.6203 0.789347C14.7659 0.50004 14.3292 0.210785 14.1836 0.210785H9.52538C9.23424 0.210785 8.94306 0.500075 8.94306 0.644729L8.50637 3.82713C7.77852 4.11644 7.19625 4.55038 6.46841 4.98434L3.70259 3.82713C3.41145 3.68248 3.1203 3.82706 2.82916 4.11637L0.500037 8.16675C0.354467 8.3114 0.500054 8.60071 0.791194 8.89002L3.26585 10.7705C3.26585 11.0598 3.12027 11.4938 3.12027 11.9277C3.12027 12.3617 3.12028 12.7956 3.26585 13.0849L0.791194 15.1101C0.500054 15.3994 0.500046 15.5441 0.645615 15.8334L2.97474 19.8837C3.12031 20.0283 3.26588 20.1729 3.70259 20.0283L6.61398 18.8711C7.19626 19.305 7.9241 19.739 8.65195 20.0283L9.08864 23.0661C9.08864 23.3554 9.37977 23.5 9.67091 23.5H14.3292C14.6203 23.5 14.9114 23.2107 14.9114 23.0661L15.3482 20.0283C16.076 19.739 16.8039 19.305 17.3861 18.8711L20.2975 20.0283C20.5887 20.1729 20.8798 20.0284 21.0254 19.7391L23.3545 15.6887C23.5001 15.3994 23.5001 15.1101 23.2089 14.9654L20.4431 13.0849ZM11.8545 15.978C9.67091 15.978 7.77852 14.0975 7.77852 11.9277C7.77852 9.75791 9.67091 7.87742 11.8545 7.87742C14.038 7.87742 15.9304 9.75791 15.9304 11.9277C15.9304 14.0975 14.038 15.978 11.8545 15.978Z"
          fill="white"/>
</svg>
